<svg xmlns="http://www.w3.org/2000/svg" width="239" height="476" viewBox="0 0 239 476"><defs><filter id="a" width="200%" height="200%" x="-50%" y="-50%"><feMorphology in="SourceGraphic" operator="dilate" result="SvgjsFeMorphology1063Out"/><feOffset dy="1" in="SvgjsFeMorphology1063Out" result="SvgjsFeOffset1064Out"/><feGaussianBlur in="SvgjsFeOffset1064Out" result="SvgjsFeGaussianBlur1065Out" stdDeviation="1"/><feComposite in="SvgjsFeGaussianBlur1065Out" in2="SourceAlpha" operator="out" result="SvgjsFeComposite1066Out"/></filter><filter id="b" width="200%" height="200%" x="-50%" y="-50%"><feMorphology in="SourceGraphic" operator="dilate" result="SvgjsFeMorphology1069Out"/><feOffset in="SvgjsFeMorphology1069Out" result="SvgjsFeOffset1070Out"/><feGaussianBlur in="SvgjsFeOffset1070Out" result="SvgjsFeGaussianBlur1071Out" stdDeviation="4"/><feComposite in="SvgjsFeGaussianBlur1071Out" in2="SourceAlpha" operator="out" result="SvgjsFeComposite1072Out"/></filter><filter id="c" width="200%" height="200%" x="-50%" y="-50%"><feGaussianBlur in="SourceGraphic" result="SvgjsFeGaussianBlur1077Out" stdDeviation="6.5"/></filter><mask id="d"><path fill="#fff" d="M781 168a24 24 0 0 1 24-24h175a24 24 0 0 1 24 24v412a24 24 0 0 1-24 24H805a24 24 0 0 1-24-24z"/></mask></defs><path fill="#303b40" fill-opacity=".08" d="M781 168a24 24 0 0 1 24-24h175a24 24 0 0 1 24 24v412a24 24 0 0 1-24 24H805a24 24 0 0 1-24-24z" filter="url(#a)" transform="translate(-773 -136)"/><path fill="#283135" fill-opacity=".26" d="M781 168a24 24 0 0 1 24-24h175a24 24 0 0 1 24 24v412a24 24 0 0 1-24 24H805a24 24 0 0 1-24-24z" filter="url(#b)" transform="translate(-773 -136)"/><path fill="#fff" d="M8 32A24 24 0 0 1 32 8h175a24 24 0 0 1 24 24v412a24 24 0 0 1-24 24H32a24 24 0 0 1-24-24z"/><path fill="#2a353a" fill-opacity=".15" d="M768 618V130h249v488zm13-39a24 24 0 0 0 24 24h175a24 24 0 0 0 24-24V167a24 24 0 0 0-24-24H805a24 24 0 0 0-24 24z" filter="url(#c)" mask="url(&quot;#d&quot;)" transform="translate(-773 -136)"/><path fill="#e9eaea" d="M97 27.5a2.5 2.5 0 0 1 2.5-2.5h41a2.5 2.5 0 0 1 0 5h-41a2.5 2.5 0 0 1-2.5-2.5z"/><path fill="#d4d4d4" d="M111 44a3 3 0 0 1 3-3h10a3 3 0 0 1 0 6h-10a3 3 0 0 1-3-3z"/></svg>