<svg xmlns="http://www.w3.org/2000/svg" width="252" height="500" viewBox="0 0 252 500"><defs><filter id="a" width="200%" height="200%" x="-50%" y="-50%"><feMorphology in="SourceGraphic" operator="dilate" result="SvgjsFeMorphology1010Out"/><feOffset dy="1" in="SvgjsFeMorphology1010Out" result="SvgjsFeOffset1011Out"/><feGaussianBlur in="SvgjsFeOffset1011Out" result="SvgjsFeGaussianBlur1012Out" stdDeviation="1"/><feComposite in="SvgjsFeGaussianBlur1012Out" in2="SourceAlpha" operator="out" result="SvgjsFeComposite1013Out"/></filter><filter id="b" width="200%" height="200%" x="-50%" y="-50%"><feMorphology in="SourceGraphic" operator="dilate" result="SvgjsFeMorphology1016Out"/><feOffset in="SvgjsFeMorphology1016Out" result="SvgjsFeOffset1017Out"/><feGaussianBlur in="SvgjsFeOffset1017Out" result="SvgjsFeGaussianBlur1018Out" stdDeviation="4"/><feComposite in="SvgjsFeGaussianBlur1018Out" in2="SourceAlpha" operator="out" result="SvgjsFeComposite1019Out"/></filter><filter id="c" width="200%" height="200%" x="-50%" y="-50%"><feGaussianBlur in="SourceGraphic" result="SvgjsFeGaussianBlur1024Out" stdDeviation="6.5"/></filter><mask id="d"><path fill="#fff" d="M980 151a30 30 0 0 1 30-30h176a30 30 0 0 1 30 30v424a30 30 0 0 1-30 30h-176a30 30 0 0 1-30-30z"/></mask><filter id="e" width="200%" height="200%" x="-50%" y="-50%"><feGaussianBlur in="SourceGraphic" result="SvgjsFeGaussianBlur1030Out" stdDeviation="3"/></filter><mask id="f"><path fill="#fff" d="M1080 575a18 18 0 1 1 36 0 18 18 0 0 1-36 0z"/></mask><clipPath id="g"><path fill="#fff" d="M1080 575a18 18 0 1 1 36 0 18 18 0 0 1-36 0z"/></clipPath></defs><path fill="#303b40" fill-opacity=".08" d="M980 151a30 30 0 0 1 30-30h176a30 30 0 0 1 30 30v424a30 30 0 0 1-30 30h-176a30 30 0 0 1-30-30z" filter="url(#a)" transform="translate(-972 -113)"/><path fill="#283135" fill-opacity=".26" d="M980 151a30 30 0 0 1 30-30h176a30 30 0 0 1 30 30v424a30 30 0 0 1-30 30h-176a30 30 0 0 1-30-30z" filter="url(#b)" transform="translate(-972 -113)"/><path fill="#fff" d="M8 38A30 30 0 0 1 38 8h176a30 30 0 0 1 30 30v424a30 30 0 0 1-30 30H38a30 30 0 0 1-30-30z"/><path fill="#2a353a" fill-opacity=".15" d="M967 619V107h262v512zm13-45a30 30 0 0 0 30 30h176a30 30 0 0 0 30-30V150a30 30 0 0 0-30-30h-176a30 30 0 0 0-30 30z" filter="url(#c)" mask="url(&quot;#d&quot;)" transform="translate(-972 -113)"/><path fill="#fff" d="M108 462a18 18 0 1 1 36 0 18 18 0 0 1-36 0z"/><path fill-opacity=".05" d="M1074 599v-48h48v48zm24-6a18 18 0 1 0 0-36 18 18 0 0 0 0 36z" filter="url(#e)" mask="url(&quot;#f&quot;)" transform="translate(-972 -113)"/><path fill="none" stroke="#273034" stroke-miterlimit="50" stroke-opacity=".08" stroke-width="4" d="M1080 575a18 18 0 1 1 36 0 18 18 0 0 1-36 0z" clip-path="url(&quot;#g&quot;)" transform="translate(-972 -113)"/><path fill="#e9eaea" d="M101 37a4 4 0 1 1 8 0 4 4 0 0 1-8 0zm14 0a3 3 0 0 1 3-3h34a3 3 0 0 1 0 6h-34a3 3 0 0 1-3-3z"/></svg>