<svg id="Layer_1" xmlns="http://www.w3.org/2000/svg" viewBox="-241 332 129 129"><style>.st0{fill:#1F2224;} .st1{fill:url(#SVGID_1_);} .st2{fill:#FFFFFF;} .st3{fill:#E8EBED;} .st4{fill:#DADEE0;} .st5{fill:#BFC4C7;}</style><path class="st0" d="M-241 396.5c0-35.6 28.9-64.5 64.5-64.5s64.5 28.9 64.5 64.5-28.9 64.5-64.5 64.5-64.5-28.9-64.5-64.5z"/><linearGradient id="SVGID_1_" gradientUnits="userSpaceOnUse" x1="-131.059" y1="391.658" x2="-192.039" y2="393.618" gradientTransform="matrix(1 0 0 -1 0 794)"><stop offset="0" stop-opacity="0"/><stop offset="1"/></linearGradient><path class="st1" d="M-211 375h79.5v44h-63.8l-15.7 8.1V375z"/><path class="st2" d="M-211 379.5c0-2.5 2-4.5 4.5-4.5h31.5v43h-36v-38.5z"/><path class="st3" d="M-175 374.9l28.5-3.9c2.1-.4 4.1 1 4.4 3.1 0 .3.1.5.1.8v34c0 2.5-2 4.8-4.5 5.1l-28.5 3.9v-43z"/><path class="st2" d="M-211 417h13.5l-13.5 10.3V417z"/><path class="st4" d="M-202 396v-11h21v11h-21zm0 7v-3h21v3h-21zm0 6v-3h21v3h-21z"/><path class="st5" d="M-169 383l20-3v3l-20 3v-3zm0 8l20-3v3l-20 3v-3zm20.2 4v9l-9.2 1.4v-9l9.2-1.4zm-20.2 3.1l7-1v3l-7 1v-3zm0 6l7-1v3l-7 1v-3z"/></svg>